<svg width="1.5rem" height="1.5rem" viewBox="0 0 27 29" fill="none" xmlns="http://www.w3.org/2000/svg" data-testid="VanguardV-logo"><title></title><path d="M19.3649 0.226203V0H26.8887L17.4078 27.9705L13.4738 26.4461C13.4738 26.4461 10.2578 25.4921 8.55638 20.6533L2.38988 3.49139C2.38988 3.49139 1.60309 0.688444 0 0.324552V0.0393387H9.39234L16.0998 19.8272L21.0762 3.95364C21.2168 3.59724 21.2838 3.21611 21.2733 2.83315C21.2628 2.45019 21.175 2.0733 21.0151 1.72514C20.8553 1.37698 20.6267 1.06472 20.3431 0.807132C20.0596 0.549545 19.7268 0.351944 19.3649 0.226203Z" fill="#96151d"></path><path fill-rule="evenodd" clip-rule="evenodd" d="M22.4715 26.9575H22.8158L22.7863 25.738H23.3764L24.1435 26.9575H24.5959L23.7894 25.738C24.2615 25.6986 24.6352 25.4724 24.6352 24.9807C24.6352 24.4889 24.3598 24.2234 23.6517 24.2234H22.4715V26.9575ZM23.4165 25.4243C23.3793 25.4237 23.3428 25.4233 23.3075 25.4233H22.8158V24.5381H23.573C23.6132 24.5381 23.653 24.537 23.6921 24.5359C23.9784 24.5277 24.2222 24.5208 24.2222 24.9708C24.2222 25.4353 23.7842 25.4293 23.4165 25.4243Z" fill="#96151d"></path><path fill-rule="evenodd" clip-rule="evenodd" d="M21.3712 24.2671C21.1075 24.6617 20.9668 25.1257 20.9668 25.6003C20.9694 26.2359 21.223 26.8448 21.6725 27.2943C22.122 27.7438 22.7309 27.9974 23.3665 28C23.8411 28 24.3051 27.8593 24.6997 27.5956C25.0944 27.3319 25.4019 26.9571 25.5836 26.5186C25.7652 26.0801 25.8127 25.5976 25.7201 25.1321C25.6275 24.6666 25.399 24.239 25.0634 23.9034C24.7278 23.5678 24.3002 23.3393 23.8347 23.2467C23.3692 23.1541 22.8867 23.2016 22.4482 23.3832C22.0097 23.5649 21.6349 23.8724 21.3712 24.2671ZM25.0177 24.5212C25.2396 24.8381 25.3632 25.2135 25.3728 25.6003C25.3794 25.8627 25.3334 26.1238 25.2375 26.3681C25.1416 26.6125 24.9977 26.8352 24.8144 27.023C24.6311 27.2109 24.412 27.3602 24.1701 27.4621C23.9282 27.5641 23.6684 27.6165 23.4059 27.6164C23.0189 27.6163 22.6407 27.5021 22.3183 27.2881C21.996 27.074 21.744 26.7697 21.5938 26.4131C21.4436 26.0565 21.4018 25.6636 21.4738 25.2834C21.5458 24.9033 21.7283 24.5528 21.9985 24.2759C22.2687 23.9989 22.6146 23.8078 22.9929 23.7265C23.3711 23.6451 23.765 23.6771 24.1251 23.8185C24.4853 23.9598 24.7958 24.2043 25.0177 24.5212Z" fill="#96151d"></path></svg>